<?xml version="1.0" encoding="UTF-8"?>
<svg id="Layer_1" data-name="Layer 1" xmlns="http://www.w3.org/2000/svg" viewBox="0 0 2343.43 496.47">
  <defs>
    <style>
      .cls-1 {
        fill: #f0512a;
      }

      .cls-2 {
        fill: #97d4c8;
      }

      .cls-3 {
        fill: #192e59;
      }

      .cls-4 {
        fill: #2c4966;
      }
    </style>
  </defs>
  <g>
    <path class="cls-2" d="m358.17,37.47c-22.02,65.17-121.05,107.22-195.8,107.68-92.52.57-153.08,22.47-157.24,61.99-4.15,39.52,0,76.73,0,76.73,22.23-24.34,58.16-44.87,116.66-46.63,211.74-6.34,228.52-140.69,236.39-199.78Z"/>
    <path class="cls-4" d="m134.75,282.43c-67.25,8.62-127.18,47.44-129.62,78.13-2.44,30.69,0,133.65,0,133.65.46-.17.86-.34,1.34-.51,79.85-29.66,57.11-73.81,107.86-110.15,23.16-16.58,79.57-23.49,119.45-50.3,43.05-28.94,73.74-67.01,85.34-116.12-21.42,31.71-104.69,55.09-184.37,65.31Z"/>
    <path class="cls-1" d="m5.13,133.22c2.48-1.19,5.12-2.07,7.54-3.51,44.05-26.19,82.84-28.47,139.85-30.17,26.09-.78,81.07-10.12,103.51-20C313.67,53.22,344.04-1.88,341.2.11c-59.18,41.62-185.91,5.49-272.21,11.3-22.04,1.48-42.77,5.56-57.32,19.68-13.91,13.51-6.54,102.13-6.54,102.13Z"/>
  </g>
  <g>
    <g>
      <path class="cls-3" d="m719.95,29.37c20.53,18.77,30.79,42.18,30.79,70.24s-9.71,51.81-29.11,71.21c-19.41,19.41-49.16,29.11-89.25,29.11h-60.62v135.68h-54.85V1.22h115.47c37.84,0,67.04,9.38,87.56,28.14Zm-148.18,127.74h60.62c20.85,0,36.4-4.97,46.67-14.92,10.26-9.94,15.39-23.82,15.39-41.62s-5.13-31.67-15.39-41.61c-10.27-9.94-25.82-14.92-46.67-14.92h-60.62v113.07Z"/>
      <path class="cls-3" d="m974.88,85.02h51.85v250.59h-51.85v-39.56c-16.37,28.8-43.06,43.2-80.04,43.2-28.2,0-51.47-9.32-69.81-27.97-18.35-18.64-27.52-44.8-27.52-78.45V85.02h51.39v140.07c0,22.44,5.61,39.65,16.83,51.62,11.21,11.98,26.53,17.97,45.93,17.97s34.79-5.98,46.16-17.97c11.37-11.97,17.05-29.18,17.05-51.62V85.02Z"/>
      <path class="cls-3" d="m1146.78,85.02v43.66c16.07-31.84,41.08-47.75,75.04-47.75v53.66h-13.19c-20.32,0-35.7,5.16-46.16,15.46-10.46,10.32-15.69,28.2-15.69,53.67v131.89h-51.85V85.02h51.85Z"/>
      <path class="cls-3" d="m1408.73,80.92c33.66,0,61.7,11.9,84.14,35.7,22.43,23.8,33.65,54.73,33.65,92.78s-11.3,69.29-33.88,93.69c-22.59,24.4-50.56,36.61-83.91,36.61-19.71,0-36.99-4.62-51.84-13.87-14.86-9.24-26.69-21.6-35.47-37.06v207.07h-51.85V85.02h51.85v44.56c8.48-14.55,20.24-26.3,35.25-35.24,15.01-8.94,32.36-13.42,52.07-13.42Zm42.3,190.33c15.16-15.61,22.74-36.3,22.74-62.08s-7.51-46.08-22.51-60.94c-15.01-14.85-32.9-22.28-53.66-22.28s-38.66,7.58-53.67,22.74c-15.01,15.17-22.51,35.63-22.51,61.4s7.5,46.31,22.51,61.62c15.01,15.31,32.82,22.97,53.44,22.97s38.5-7.8,53.66-23.42Z"/>
      <path class="cls-3" d="m1686.84,339.7c-36.54,0-66.63-11.9-90.28-35.7-23.65-23.8-35.47-55.03-35.47-93.68s12.2-69.89,36.61-93.69c24.4-23.8,54.8-35.7,91.19-35.7s66.78,11.9,91.18,35.7c24.4,23.8,36.61,54.96,36.61,93.46s-12.51,69.74-37.52,93.68c-25.01,23.95-55.79,35.93-92.32,35.93Zm53.89-66.4c15.16-15.15,22.74-36.23,22.74-63.21s-7.36-47.98-22.06-62.99c-14.71-15-32.52-22.51-53.44-22.51s-38.51,7.51-52.76,22.51c-14.26,15.01-21.37,36.09-21.37,63.22s6.97,48.21,20.92,63.21c13.94,15.01,31.3,22.52,52.07,22.52s38.73-7.58,53.89-22.74Z"/>
      <path class="cls-3" d="m1856.7,156.87c0-21.21,8.94-39.18,26.83-53.89,17.88-14.7,41.39-22.05,70.49-22.05s52.22,7.21,69.35,21.6c17.12,14.41,26.3,34.04,27.52,58.9h-53.21c-.91-12.43-5.23-22.13-12.96-29.1-7.73-6.97-18.57-10.46-32.51-10.46s-24.87,3.11-32.75,9.32c-7.89,6.22-11.82,14.41-11.82,24.56s5,18.12,15.01,23.88c10.01,5.76,22.21,10.01,36.61,12.73,14.4,2.73,28.8,6.07,43.21,10.01,14.4,3.94,26.6,11.14,36.61,21.6,10.01,10.46,15.01,24.49,15.01,42.06,0,21.83-9.17,39.57-27.52,53.21-18.35,13.64-41.92,20.47-70.72,20.47s-52.15-6.97-70.04-20.92c-17.89-13.94-27.74-33.8-29.56-59.58h53.66c.91,12.44,5.46,22.14,13.64,29.11,8.19,6.98,19.33,10.46,33.43,10.46s25.31-3.11,33.65-9.32c8.34-6.22,12.51-14.48,12.51-24.79s-5-18.34-15.01-24.1c-10.01-5.75-22.21-10.08-36.61-12.96-14.41-2.88-28.81-6.21-43.21-10.01-14.4-3.79-26.6-10.69-36.61-20.69-10.01-10.01-15.01-23.34-15.01-40.03Z"/>
      <path class="cls-3" d="m2216.43,339.7c-36.38,0-65.94-11.83-88.68-35.48-22.74-23.65-34.11-55.03-34.11-94.14s11.52-70.41,34.56-93.92c23.04-23.49,52.83-35.24,89.36-35.24s66.17,11.3,88.91,33.88c22.74,22.59,34.11,52.08,34.11,88.46,0,8.79-.61,16.98-1.82,24.56h-191.92c1.21,20.92,8.26,37.52,21.15,49.8,12.89,12.28,29.03,18.42,48.44,18.42,28.2,0,48.05-11.67,59.58-35.02h55.94c-7.58,23.04-21.37,41.92-41.38,56.62-20.01,14.71-44.73,22.06-74.13,22.06Zm49.57-196.7c-13.34-12.28-29.56-18.42-48.66-18.42s-35.1,6.14-47.98,18.42c-12.89,12.28-20.24,28.73-22.06,49.34h139.17c-.31-20.62-7.13-37.06-20.47-49.34Z"/>
    </g>
    <g>
      <polygon class="cls-1" points="1386.7 412.23 1383.63 412.23 1383.63 415.3 1383.63 490.84 1383.63 493.91 1386.7 493.91 1394.68 493.91 1397.75 493.91 1397.75 490.84 1397.75 458.17 1431.23 458.17 1434.29 458.17 1434.29 455.1 1434.29 448.06 1434.29 444.99 1431.23 444.99 1397.75 444.99 1397.75 425.41 1433.99 425.41 1437.06 425.41 1437.06 422.34 1437.06 415.3 1437.06 412.23 1433.99 412.23 1386.7 412.23"/>
      <polygon class="cls-1" points="1494.38 412.23 1491.31 412.23 1491.31 415.3 1491.31 490.84 1491.31 493.91 1494.38 493.91 1502.36 493.91 1505.43 493.91 1505.43 490.84 1505.43 415.3 1505.43 412.23 1502.36 412.23 1494.38 412.23"/>
      <polygon class="cls-1" points="1619.67 412.23 1616.6 412.23 1616.6 415.3 1616.6 470.21 1575.19 413.49 1574.27 412.23 1572.71 412.23 1562.74 412.23 1559.67 412.23 1559.67 415.3 1559.67 490.84 1559.67 493.91 1562.74 493.91 1570.72 493.91 1573.78 493.91 1573.78 490.84 1573.78 435.36 1615.19 492.64 1616.11 493.91 1617.68 493.91 1627.64 493.91 1630.71 493.91 1630.71 490.84 1630.71 415.3 1630.71 412.23 1627.64 412.23 1619.67 412.23"/>
      <path class="cls-1" d="m1734.38,414.04l-.82-1.81h-11.72l-.82,1.81-34.11,75.54-1.96,4.33h16.07l.8-1.84,7.84-18h36.08l7.83,18,.8,1.84h16.07l-1.96-4.33-34.12-75.54Zm5.63,46.85h-24.69l12.38-28.83,12.31,28.83Z"/>
      <polygon class="cls-1" points="1884.69 412.23 1881.63 412.23 1881.63 415.3 1881.63 470.21 1840.21 413.49 1839.29 412.23 1837.74 412.23 1827.77 412.23 1824.7 412.23 1824.7 415.3 1824.7 490.84 1824.7 493.91 1827.77 493.91 1835.74 493.91 1838.81 493.91 1838.81 490.84 1838.81 435.36 1880.22 492.64 1881.14 493.91 1882.7 493.91 1892.67 493.91 1895.74 493.91 1895.74 490.84 1895.74 415.3 1895.74 412.23 1892.67 412.23 1884.69 412.23"/>
      <path class="cls-1" d="m2018.15,471.88l-2.55-1.75-1.73,2.57c-1.32,1.96-2.75,3.6-4.25,4.86-1.5,1.26-3.11,2.27-4.78,3-1.72.75-3.5,1.29-5.29,1.6-1.84.33-3.73.49-5.61.49-4.56,0-8.69-.81-12.26-2.4-3.59-1.61-6.67-3.77-9.13-6.43-2.49-2.68-4.42-5.83-5.75-9.39-1.34-3.58-2.02-7.4-2.02-11.36s.68-7.78,2.02-11.36c1.33-3.55,3.26-6.71,5.75-9.39,2.46-2.66,5.54-4.83,9.14-6.44,3.57-1.59,7.7-2.4,12.26-2.4,1.78,0,3.59.25,5.38.74,1.84.51,3.61,1.19,5.24,2.02,1.58.81,3,1.75,4.21,2.79,1.18,1.02,2.12,2.04,2.79,3.02l1.77,2.62,2.56-1.84,6.98-5.01,2.65-1.9-2.06-2.53c-3.8-4.67-8.45-8.07-13.81-10.11-5.21-1.97-10.49-2.97-15.71-2.97-6.19,0-12.03,1.08-17.36,3.2-5.34,2.14-10.04,5.14-13.96,8.91-3.93,3.78-7.05,8.33-9.28,13.54-2.22,5.19-3.34,10.95-3.34,17.11s1.13,11.91,3.34,17.1c2.23,5.2,5.35,9.76,9.28,13.54,3.94,3.79,8.63,6.79,13.95,8.91,5.33,2.13,11.17,3.21,17.36,3.21,3.46,0,6.82-.39,9.97-1.16,3.11-.75,6.07-1.82,8.78-3.17,2.72-1.35,5.2-2.99,7.35-4.86,2.15-1.87,3.98-3.9,5.44-6.01l1.75-2.53-2.54-1.74-6.53-4.48Z"/>
      <polygon class="cls-1" points="2084.53 412.23 2081.46 412.23 2081.46 415.3 2081.46 490.84 2081.46 493.91 2084.53 493.91 2092.51 493.91 2095.57 493.91 2095.57 490.84 2095.57 415.3 2095.57 412.23 2092.51 412.23 2084.53 412.23"/>
      <path class="cls-1" d="m2199.24,414.04l-.82-1.81h-11.72l-.82,1.81-34.11,75.54-1.96,4.33h16.07l.8-1.84,7.84-18h36.07l7.83,18,.8,1.84h16.07l-1.96-4.33-34.11-75.54Zm5.62,46.85h-24.69l12.39-28.83,12.31,28.83Z"/>
      <polygon class="cls-1" points="2337.15 480.73 2303.67 480.73 2303.67 415.3 2303.67 412.23 2300.6 412.23 2292.63 412.23 2289.56 412.23 2289.56 415.3 2289.56 490.84 2289.56 493.91 2292.63 493.91 2337.15 493.91 2340.22 493.91 2340.22 490.84 2340.22 483.8 2340.22 480.73 2337.15 480.73"/>
    </g>
  </g>
</svg>